<svg width="1454" height="441" viewBox="0 0 1454 441" fill="none" xmlns="http://www.w3.org/2000/svg">
<g clip-path="url(#clip0_122_3030)">
<path d="M7 42.8L25.5 64.2C43.9 85.6 81 128.4 118 164.111C154.7 199.288 192 228.713 229 235.4C265.5 242.088 302 228.713 339 185.511C376.2 143.113 413 70.8875 450 85.6C487 100.313 524 199.288 561 249.711C597.8 299.6 635 299.6 672 249.711C708.5 199.288 745 100.313 782 121.311C819.3 143.113 856 284.888 893 349.489C930.1 413.288 967 399.913 1004 399.511C1040.8 399.913 1078 413.288 1115 406.6C1151.6 399.913 1189 370.488 1225 342.4C1262.4 314.313 1299 284.888 1336 263.889C1373.2 242.088 1410 228.713 1429 221.089L1447 214V428H1428.5C1410.1 428 1373 428 1336 428C1299.3 428 1262 428 1225 428C1188.5 428 1152 428 1115 428C1077.8 428 1041 428 1004 428C967 428 930 428 893 428C856.2 428 819 428 782 428C745.5 428 709 428 672 428C634.7 428 598 428 561 428C523.9 428 487 428 450 428C413.2 428 376 428 339 428C302.4 428 265 428 229 428C191.6 428 155 428 118 428C80.8 428 44 428 25 428H7V42.8Z" fill="#0A8348"/>
</g>
<path d="M7 108.5L25.5 126.25C43.9 144 81 179.5 118 209.12C154.7 238.297 192 262.703 229 268.25C265.5 273.797 302 262.703 339 226.87C376.2 191.703 413 131.797 450 144C487 156.203 524 238.297 561 280.12C597.8 321.5 635 321.5 672 280.12C708.5 238.297 745 156.203 782 173.62C819.3 191.703 856 309.297 893 362.88C930.1 415.797 967 404.703 1004 404.37C1040.8 404.703 1078 415.797 1115 410.25C1151.6 404.703 1189 380.297 1225 357C1262.4 333.703 1299 309.297 1336 291.88C1373.2 273.797 1410 262.703 1429 256.38L1447 250.5V428H1428.5C1410.1 428 1373 428 1336 428C1299.3 428 1262 428 1225 428C1188.5 428 1152 428 1115 428C1077.8 428 1041 428 1004 428C967 428 930 428 893 428C856.2 428 819 428 782 428C745.5 428 709 428 672 428C634.7 428 598 428 561 428C523.9 428 487 428 450 428C413.2 428 376 428 339 428C302.4 428 265 428 229 428C191.6 428 155 428 118 428C80.8 428 44 428 25 428H7V108.5Z" fill="#B40101"/>
<path d="M7 153L25.5 169C43.9 185 81 217 118 243.7C154.7 270 192 292 229 297C265.5 302 302 292 339 259.7C376.2 228 413 174 450 185C487 196 524 270 561 307.7C597.8 345 635 345 672 307.7C708.5 270 745 196 782 211.7C819.3 228 856 334 893 382.3C930.1 430 967 420 1004 419.7C1040.8 420 1078 430 1115 425C1151.6 420 1189 398 1225 377C1262.4 356 1299 334 1336 318.3C1373.2 302 1410 292 1429 286.3L1447 281V441H1428.5C1410.1 441 1373 441 1336 441C1299.3 441 1262 441 1225 441C1188.5 441 1152 441 1115 441C1077.8 441 1041 441 1004 441C967 441 930 441 893 441C856.2 441 819 441 782 441C745.5 441 709 441 672 441C634.7 441 598 441 561 441C523.9 441 487 441 450 441C413.2 441 376 441 339 441C302.4 441 265 441 229 441C191.6 441 155 441 118 441C80.8 441 44 441 25 441H7V153Z" fill="#0099FF"/>
<defs>
<clipPath id="clip0_122_3030">
<rect width="1440" height="428" fill="white" transform="translate(7)"/>
</clipPath>
</defs>
</svg>
